<svg width="592" height="600" viewBox="0 0 592 600" fill="none" xmlns="http://www.w3.org/2000/svg">
<path fill-rule="evenodd" clip-rule="evenodd" d="M275.092 8.45948C279.496 3.6973 285.161 0 292.006 0C298.851 0 304.517 3.6973 308.919 8.45948C313.332 13.232 317.215 19.8274 320.689 27.5925C327.658 43.175 333.743 65.2299 338.783 91.8704C348.887 145.281 355.087 218.731 355.087 299.633C355.087 380.534 348.887 453.985 338.783 507.396C333.743 534.036 327.658 556.09 320.689 571.673C317.215 579.438 313.332 586.034 308.919 590.806C304.517 595.569 298.851 599.266 292.006 599.266C285.161 599.266 279.496 595.569 275.092 590.806C270.68 586.034 266.797 579.438 263.324 571.673C256.354 556.09 250.27 534.036 245.23 507.396C235.124 453.985 228.925 380.534 228.925 299.633C228.925 218.731 235.124 145.281 245.23 91.8704C250.27 65.2299 256.354 43.175 263.324 27.5925C266.797 19.8274 270.68 13.232 275.092 8.45948ZM260.724 94.8017C250.852 146.983 244.696 219.406 244.696 299.633C244.696 379.859 250.852 452.283 260.724 504.463C265.673 530.619 271.482 551.29 277.719 565.234C280.85 572.232 283.898 577.1 286.672 580.1C289.456 583.111 291.231 583.495 292.006 583.495C292.782 583.495 294.557 583.111 297.34 580.1C300.114 577.1 303.163 572.232 306.293 565.234C312.53 551.29 318.339 530.619 323.288 504.463C333.16 452.283 339.317 379.859 339.317 299.633C339.317 219.406 333.16 146.983 323.288 94.8017C318.339 68.6462 312.53 47.9756 306.293 34.0316C303.163 27.0335 300.114 22.1654 297.34 19.1652C294.557 16.1547 292.782 15.7702 292.006 15.7702C291.231 15.7702 289.456 16.1547 286.672 19.1652C283.898 22.1654 280.85 27.0335 277.719 34.0316C271.482 47.9756 265.673 68.6462 260.724 94.8017Z" fill="red"/>
<path fill-rule="evenodd" clip-rule="evenodd" d="M275.091 8.45948C279.493 3.6973 285.158 0 292.004 0C298.85 0 304.515 3.6973 308.917 8.45948C313.33 13.232 317.213 19.8274 320.686 27.5925C327.657 43.175 333.741 65.2299 338.781 91.8704C348.885 145.281 355.084 218.731 355.084 299.633C355.084 380.534 348.885 453.985 338.781 507.396C333.741 534.036 327.657 556.09 320.686 571.673C317.213 579.438 313.33 586.034 308.917 590.806C304.515 595.569 298.85 599.266 292.004 599.266C285.158 599.266 279.493 595.569 275.091 590.806C270.678 586.034 266.795 579.438 263.322 571.673C256.351 556.09 250.267 534.036 245.227 507.396C235.123 453.985 228.924 380.534 228.924 299.633C228.924 218.731 235.123 145.281 245.227 91.8704C250.267 65.2299 256.351 43.175 263.322 27.5925C266.795 19.8274 270.678 13.232 275.091 8.45948ZM260.723 94.8017C250.851 146.983 244.693 219.406 244.693 299.633C244.693 379.859 250.851 452.283 260.723 504.463C265.671 530.619 271.48 551.29 277.717 565.234C280.847 572.232 283.896 577.1 286.67 580.1C289.453 583.111 291.229 583.495 292.004 583.495C292.779 583.495 294.555 583.111 297.338 580.1C300.111 577.1 303.16 572.232 306.291 565.234C312.528 551.29 318.337 530.619 323.285 504.463C333.157 452.283 339.314 379.859 339.314 299.633C339.314 219.406 333.157 146.983 323.285 94.8017C318.337 68.6462 312.528 47.9756 306.291 34.0316C303.16 27.0335 300.111 22.1654 297.338 19.1652C294.555 16.1547 292.779 15.7702 292.004 15.7702C291.229 15.7702 289.453 16.1547 286.67 19.1652C283.896 22.1654 280.847 27.0335 277.717 34.0316C271.48 47.9756 265.671 68.6462 260.723 94.8017Z" fill="white"/>
<path fill-rule="evenodd" clip-rule="evenodd" d="M535.708 139.398C542.034 140.83 548.069 143.888 551.492 149.816C554.914 155.744 554.545 162.499 552.622 168.693C550.695 174.901 546.925 181.562 541.937 188.452C531.927 202.279 515.869 218.576 495.318 236.261C454.115 271.717 393.605 313.811 323.542 354.262C253.48 394.712 186.77 426.07 135.462 444.023C109.871 452.979 87.7294 458.737 70.7495 460.492C62.2882 461.367 54.6348 461.302 48.2954 459.867C41.9699 458.435 35.9352 455.377 32.5125 449.449C29.0898 443.521 29.4591 436.766 31.3818 430.571C33.3088 424.364 37.079 417.703 42.0671 410.813C52.077 396.985 68.1349 380.689 88.686 363.004C129.889 327.548 190.399 285.454 260.462 245.003C330.524 204.552 397.235 173.196 448.541 155.242C474.133 146.286 496.274 140.528 513.254 138.773C521.716 137.898 529.369 137.963 535.708 139.398ZM453.75 170.126C403.623 187.668 337.825 218.547 268.347 258.661C198.869 298.774 139.227 340.317 98.9729 374.957C78.7953 392.321 63.7987 407.687 54.8414 420.061C50.3459 426.27 47.6543 431.344 46.443 435.247C45.2275 439.163 45.7822 440.892 46.1699 441.563C46.5576 442.236 47.7783 443.581 51.7771 444.486C55.7622 445.388 61.5024 445.594 69.1281 444.806C84.3225 443.236 105.129 437.931 130.254 429.138C180.381 411.597 246.179 380.718 315.657 340.604C385.135 300.491 444.777 258.948 485.032 224.308C505.208 206.944 520.206 191.578 529.162 179.204C533.658 172.995 536.35 167.92 537.561 164.018C538.776 160.103 538.222 158.373 537.834 157.701C537.447 157.029 536.226 155.684 532.227 154.779C528.242 153.877 522.501 153.671 514.876 154.459C499.681 156.029 478.875 161.334 453.75 170.126Z" fill="white"/>
<path fill-rule="evenodd" clip-rule="evenodd" d="M551.65 427.12C553.572 433.314 553.941 440.069 550.518 445.996C547.096 451.925 541.061 454.983 534.736 456.415C528.396 457.849 520.743 457.915 512.282 457.04C495.302 455.285 473.159 449.527 447.568 440.571C396.261 422.617 329.551 391.261 259.489 350.809C189.426 310.359 128.916 268.265 87.7131 232.809C67.1617 215.124 51.1039 198.828 41.094 185C36.1059 178.11 32.3356 171.449 30.4087 165.242C28.486 159.047 28.1167 152.292 31.5394 146.364C34.9621 140.436 40.9967 137.378 47.3222 135.946C53.6616 134.511 61.315 134.446 69.7764 135.321C86.7562 137.076 108.898 142.834 134.49 151.79C185.797 169.743 252.507 201.101 322.57 241.551C392.631 282.002 453.143 324.096 494.345 359.552C514.896 377.236 530.954 393.534 540.964 407.361C545.952 414.251 549.723 420.912 551.65 427.12ZM484.058 371.505C443.804 336.865 384.163 295.322 314.684 255.209C245.206 215.095 179.407 184.216 129.281 166.675C104.155 157.882 83.3493 152.577 68.1549 151.007C60.5293 150.219 54.789 150.425 50.804 151.327C46.8051 152.232 45.5844 153.577 45.1967 154.25C44.8089 154.921 44.2544 156.65 45.4699 160.566C46.6812 164.469 49.3728 169.543 53.8682 175.752C62.8255 188.126 77.8221 203.492 97.9992 220.856C138.254 255.496 197.896 297.039 267.374 337.152C336.852 377.266 402.65 408.145 452.777 425.687C477.903 434.479 498.709 439.783 513.903 441.354C521.529 442.142 527.269 441.936 531.254 441.034C535.253 440.129 536.473 438.783 536.861 438.112C537.249 437.44 537.803 435.71 536.588 431.795C535.376 427.892 532.685 422.818 528.19 416.609C519.232 404.235 504.236 388.869 484.058 371.505Z" fill="white"/>
<path fill-rule="evenodd" clip-rule="evenodd" d="M433.939 191.87C447.004 191.87 457.594 181.279 457.594 168.215C457.594 155.15 447.004 144.559 433.939 144.559C420.875 144.559 410.283 155.15 410.283 168.215C410.283 181.279 420.875 191.87 433.939 191.87Z" fill="white"/>
<path fill-rule="evenodd" clip-rule="evenodd" d="M108.02 265.464C121.084 265.464 131.675 254.874 131.675 241.81C131.675 228.744 121.084 218.154 108.02 218.154C94.9547 218.154 84.3643 228.744 84.3643 241.81C84.3643 254.874 94.9547 265.464 108.02 265.464Z" fill="white"/>
<path fill-rule="evenodd" clip-rule="evenodd" d="M249.952 517.786C263.016 517.786 273.608 507.196 273.608 494.131C273.608 481.067 263.016 470.476 249.952 470.476C236.888 470.476 226.297 481.067 226.297 494.131C226.297 507.196 236.888 517.786 249.952 517.786Z" fill="white"/>
<path fill-rule="evenodd" clip-rule="evenodd" d="M292.007 333.802C310.878 333.802 326.176 318.503 326.176 299.633C326.176 280.762 310.878 265.464 292.007 265.464C273.136 265.464 257.838 280.762 257.838 299.633C257.838 318.503 273.136 333.802 292.007 333.802Z" fill="white"/>
</svg>
