<svg width="213" height="30" viewBox="0 0 213 30" fill="none" xmlns="http://www.w3.org/2000/svg">
    <rect width="213" height="30" fill="none"/>
    <path d="M11.3812 18.1031L12.9111 19.6619C11.4485 21.3361 9.63958 22.1732 7.48426 22.1732C5.34817 22.1732 3.5681 21.49 2.14405 20.1237C0.739239 18.7381 0.036833 16.9966 0.036833 14.899C0.036833 12.7821 0.758483 11.0309 2.20178 9.64536C3.64508 8.24055 5.46364 7.53814 7.65745 7.53814C9.81278 7.53814 11.6313 8.34639 13.1131 9.96289L11.6121 11.6082C10.9386 10.954 10.3035 10.5017 9.70694 10.2515C9.11037 10.0014 8.40797 9.87629 7.59972 9.87629C6.15642 9.87629 4.94405 10.3381 3.96261 11.2619C3.00041 12.1856 2.51931 13.3594 2.51931 14.7835C2.51931 16.1883 3.00041 17.3814 3.96261 18.3629C4.92481 19.3443 6.06982 19.8351 7.39766 19.8351C8.20591 19.8351 8.89869 19.7003 9.47601 19.4309C10.0726 19.1615 10.7076 18.7189 11.3812 18.1031ZM25.1593 9.70309C23.7544 9.70309 22.5709 10.2034 21.6087 11.2041C20.6465 12.2048 20.1654 13.4172 20.1654 14.8412C20.1654 16.2653 20.6465 17.4777 21.6087 18.4784C22.5709 19.4598 23.7544 19.9505 25.1593 19.9505C26.5641 19.9505 27.7476 19.4598 28.7098 18.4784C29.672 17.4777 30.1531 16.2653 30.1531 14.8412C30.1531 13.4172 29.672 12.2048 28.7098 11.2041C27.7476 10.2034 26.5641 9.70309 25.1593 9.70309ZM25.1593 22.1443C23.0424 22.1443 21.272 21.4515 19.8479 20.066C18.4239 18.6612 17.7118 16.9196 17.7118 14.8412C17.7118 12.7629 18.4239 11.0309 19.8479 9.64536C21.272 8.24055 23.0424 7.53814 25.1593 7.53814C27.2761 7.53814 29.0465 8.24055 30.4706 9.64536C31.8947 11.0309 32.6067 12.7629 32.6067 14.8412C32.6067 16.9196 31.885 18.6515 30.4417 20.0371C28.9984 21.4419 27.2376 22.1443 25.1593 22.1443ZM40.3212 11.4351C40.3212 12.0316 40.5425 12.4646 40.9851 12.734C41.4277 13.0612 42.3707 13.3979 43.814 13.7443C45.3342 14.11 46.4408 14.6103 47.1335 15.2454C47.8456 15.8804 48.2016 16.7945 48.2016 17.9876C48.2016 19.2385 47.7301 20.2488 46.7871 21.0186C45.8634 21.7883 44.6511 22.1732 43.15 22.1732C40.9755 22.1732 39.0126 21.4034 37.2614 19.8639L38.7624 18.0742C40.2249 19.3251 41.7067 19.9505 43.2078 19.9505C43.9583 19.9505 44.5645 19.7869 45.0263 19.4598C45.4882 19.1134 45.7191 18.6708 45.7191 18.132C45.7191 17.5931 45.5074 17.1698 45.0841 16.8619C44.6799 16.554 43.9487 16.2749 42.8902 16.0247C41.0621 15.6014 39.792 15.101 39.0799 14.5237C38.2524 13.8887 37.8387 12.9168 37.8387 11.6082C37.8387 10.3381 38.3005 9.34708 39.2243 8.63505C40.148 7.90378 41.3315 7.53814 42.7748 7.53814C44.7184 7.53814 46.383 8.10584 47.7686 9.24124L46.4985 11.0309C46.0751 10.646 45.5074 10.3381 44.7954 10.1072C44.0834 9.85704 43.381 9.73196 42.6882 9.73196C41.9761 9.73196 41.3988 9.88591 40.9562 10.1938C40.5329 10.4825 40.3212 10.8962 40.3212 11.4351ZM56.3541 22H53.9582V7.88454H57.6819L61.9252 16.7464L66.1974 7.88454H69.8922V22H67.5252V10.9732L62.5891 20.7588H61.2613L56.3541 10.9732V22ZM83.1335 9.70309C81.7287 9.70309 80.5452 10.2034 79.583 11.2041C78.6208 12.2048 78.1397 13.4172 78.1397 14.8412C78.1397 16.2653 78.6208 17.4777 79.583 18.4784C80.5452 19.4598 81.7287 19.9505 83.1335 19.9505C84.5383 19.9505 85.7218 19.4598 86.684 18.4784C87.6462 17.4777 88.1273 16.2653 88.1273 14.8412C88.1273 13.4172 87.6462 12.2048 86.684 11.2041C85.7218 10.2034 84.5383 9.70309 83.1335 9.70309ZM83.1335 22.1443C81.0166 22.1443 79.2462 21.4515 77.8221 20.066C76.3981 18.6612 75.686 16.9196 75.686 14.8412C75.686 12.7629 76.3981 11.0309 77.8221 9.64536C79.2462 8.24055 81.0166 7.53814 83.1335 7.53814C85.2503 7.53814 87.0208 8.24055 88.4448 9.64536C89.8689 11.0309 90.5809 12.7629 90.5809 14.8412C90.5809 16.9196 89.8592 18.6515 88.4159 20.0371C86.9726 21.4419 85.2118 22.1443 83.1335 22.1443ZM98.2954 11.4351C98.2954 12.0316 98.5167 12.4646 98.9593 12.734C99.4019 13.0612 100.345 13.3979 101.788 13.7443C103.308 14.11 104.415 14.6103 105.108 15.2454C105.82 15.8804 106.176 16.7945 106.176 17.9876C106.176 19.2385 105.704 20.2488 104.761 21.0186C103.838 21.7883 102.625 22.1732 101.124 22.1732C98.9497 22.1732 96.9868 21.4034 95.2356 19.8639L96.7366 18.0742C98.1992 19.3251 99.681 19.9505 101.182 19.9505C101.932 19.9505 102.539 19.7869 103.001 19.4598C103.462 19.1134 103.693 18.6708 103.693 18.132C103.693 17.5931 103.482 17.1698 103.058 16.8619C102.654 16.554 101.923 16.2749 100.864 16.0247C99.0363 15.6014 97.7662 15.101 97.0541 14.5237C96.2267 13.8887 95.8129 12.9168 95.8129 11.6082C95.8129 10.3381 96.2748 9.34708 97.1985 8.63505C98.1222 7.90378 99.3057 7.53814 100.749 7.53814C102.693 7.53814 104.357 8.10584 105.743 9.24124L104.473 11.0309C104.049 10.646 103.482 10.3381 102.77 10.1072C102.058 9.85704 101.355 9.73196 100.662 9.73196C99.9504 9.73196 99.373 9.88591 98.9304 10.1938C98.5071 10.4825 98.2954 10.8962 98.2954 11.4351ZM117.273 10.0495V22H114.877V10.0495H110.605V7.88454H121.545V10.0495H117.273ZM128.947 18.7959L127.532 22H124.992L131.227 7.88454H133.767L139.974 22H137.433L136.019 18.7959H128.947ZM135.066 16.5732L132.497 10.7711L129.928 16.5732H135.066ZM144.739 7.88454H147.135V14.7546L153.601 7.88454H156.603L150.946 14.0619L156.69 22H153.861L149.185 15.8227L147.135 18.0454V22H144.739V7.88454ZM171.688 7.88454V10.1072H164.154V13.8598H170.909V15.967H164.154V19.7485H171.919V22H161.758V7.88454H171.688Z" fill="black"/>
    <rect x="184" y="1" width="28" height="28" rx="14" stroke="black" stroke-width="2"/>
    <path d="M202 13C202.828 13 203.5 12.3284 203.5 11.5C203.5 10.6716 202.828 10 202 10C201.172 10 200.5 10.6716 200.5 11.5C200.5 12.3284 201.172 13 202 13Z" fill="black"/>
    <path d="M194 13C194.828 13 195.5 12.3284 195.5 11.5C195.5 10.6716 194.828 10 194 10C193.172 10 192.5 10.6716 192.5 11.5C192.5 12.3284 193.172 13 194 13Z" fill="black"/>
    <path d="M198.45 21.5769C197.3 21.5798 196.171 21.2702 195.183 20.6812C194.195 20.0921 193.386 19.2459 192.841 18.2328L191 19.2487C191.741 20.6202 192.847 21.7605 194.194 22.5438C195.542 23.3271 197.08 23.7229 198.639 23.6879C200.197 23.6528 201.716 23.1884 203.027 22.3453C204.339 21.5023 205.391 20.3134 206.07 18.91L204.165 18C203.645 19.0726 202.833 19.977 201.822 20.6096C200.811 21.2422 199.643 21.5774 198.45 21.5769V21.5769Z" fill="black"/>
</svg>
