<svg width="17" height="21" viewBox="0 0 17 21" fill="none" xmlns="http://www.w3.org/2000/svg">
<path d="M2.62081 1.9488L2.64601 3.234L8.80321 3.2592L14.952 3.276V1.974V0.672001H8.77801H2.59561L2.62081 1.9488Z" fill="white"/>
<path d="M2.604 12.8856V21H4.578H6.552V18.1104V15.2292L8.4252 15.1788C10.6008 15.12 11.2896 14.994 12.3816 14.4312C14.07 13.5492 14.9772 11.9868 14.9772 9.954C14.9772 8.4504 14.5404 7.308 13.6164 6.3756C12.9696 5.7372 12.5076 5.46 11.466 5.0988L10.71 4.83L6.6612 4.8048L2.604 4.7796V12.8856ZM10.0968 8.2488C10.5756 8.5344 10.8192 8.9124 10.9368 9.5508C11.0712 10.29 10.9116 10.92 10.4832 11.3904C9.996 11.9196 9.618 12.012 7.9212 12.012H6.552V9.9876V7.9632L8.1312 7.9968C9.6684 8.022 9.7104 8.0304 10.0968 8.2488Z" fill="white"/>
</svg>
