<svg width="19" height="21" viewBox="0 0 19 21" fill="#B0B0B0" xmlns="http://www.w3.org/2000/svg">
<path fill-rule="evenodd" clip-rule="evenodd" d="M18.125 13.375V1.15625L17.4063 0.4375H3.37629C3.0466 0.441148 2.7203 0.504461 2.41317 0.624375C2.10358 0.761956 1.82458 0.959979 1.59254 1.20683C1.36051 1.45367 1.1801 1.74437 1.06192 2.06187C0.944335 2.34463 0.880943 2.64696 0.875042 2.95312V16.6094C0.871587 16.9397 0.935159 17.2674 1.06192 17.5725C1.31657 18.1868 1.8016 18.677 2.41317 18.9381C2.7203 19.058 3.0466 19.1214 3.37629 19.125H3.75004V17.6875H3.37629C3.23286 17.6879 3.0909 17.6586 2.95942 17.6012C2.69916 17.4933 2.49237 17.2865 2.38442 17.0263C2.33849 16.892 2.31422 16.7513 2.31254 16.6094V15.8906C2.31422 15.7487 2.33849 15.608 2.38442 15.4738C2.49237 15.2135 2.69916 15.0067 2.95942 14.8988C3.08893 14.8423 3.22861 14.8129 3.36985 14.8125H3.37629H3.75H16.6875V17.6875H10.9375V19.125H17.4063L18.125 18.4062V14.8125V13.375ZM3.75 13.375V1.875H16.6875V13.375H3.75ZM5.1875 3.3125H6.625V4.75H5.1875V3.3125ZM5.1875 6.1875H6.625V7.625H5.1875V6.1875ZM6.625 9.0625H5.1875V10.5H6.625V9.0625ZM7.34375 18.3919L5.59 20.5625H5.1875V16.25H9.5V20.5625H9.0975L7.34375 18.3919Z"/>
</svg>
