<svg width="24" height="24" viewBox="0 0 24 24" fill="#B0B0B0" xmlns="http://www.w3.org/2000/svg">
<path fill-rule="evenodd" clip-rule="evenodd" d="M5.6804 2.54199C7.55101 1.29209 9.75022 0.625 12 0.625C15.0168 0.625 17.9101 1.8235 20.0434 3.95673C22.1766 6.08995 23.375 8.98316 23.375 12C23.375 14.2498 22.7079 16.4491 21.458 18.3197C20.2081 20.1903 18.4315 21.6482 16.353 22.5091C14.2745 23.3701 11.9873 23.5953 9.78079 23.1564C7.57425 22.7175 5.54743 21.6341 3.95661 20.0433C2.36579 18.4525 1.28249 16.4256 0.843583 14.2191C0.404676 12.0126 0.629899 9.72541 1.49085 7.6469C2.35179 5.56839 3.80979 3.79189 5.6804 2.54199ZM6.58315 20.1068C8.18653 21.1781 10.0716 21.75 12 21.75C14.5858 21.75 17.0658 20.7228 18.8942 18.8943C20.7227 17.0659 21.75 14.5859 21.75 12C21.75 10.0716 21.1782 8.18665 20.1068 6.58327C19.0355 4.97989 17.5127 3.73004 15.7311 2.99208C13.9495 2.25413 11.9892 2.06105 10.0979 2.43726C8.20656 2.81346 6.4693 3.74209 5.10574 5.10565C3.74217 6.46921 2.81355 8.20657 2.43734 10.0979C2.06113 11.9892 2.25421 13.9497 2.99217 15.7312C3.73012 17.5128 4.97977 19.0354 6.58315 20.1068ZM9.5625 10.375C9.5625 11.2725 8.83496 12 7.9375 12C7.04004 12 6.3125 11.2725 6.3125 10.375C6.3125 9.47754 7.04004 8.75 7.9375 8.75C8.83496 8.75 9.5625 9.47754 9.5625 10.375ZM17.6875 10.375C17.6875 11.2725 16.96 12 16.0625 12C15.165 12 14.4375 11.2725 14.4375 10.375C14.4375 9.47754 15.165 8.75 16.0625 8.75C16.96 8.75 17.6875 9.47754 17.6875 10.375ZM12 16.875C11.117 16.8772 10.2499 16.6395 9.49149 16.1873C8.73305 15.7351 8.11167 15.0854 7.69371 14.3076L6.27997 15.0875C6.84896 16.1405 7.69766 17.0159 8.73244 17.6173C9.76723 18.2187 10.948 18.5225 12.1445 18.4956C13.3411 18.4687 14.507 18.1122 15.5137 17.4649C16.5205 16.8177 17.3288 15.9049 17.85 14.8275L16.3875 14.1288C15.9878 14.9524 15.3643 15.6466 14.5884 16.1323C13.8124 16.618 12.9154 16.8753 12 16.875Z" />
</svg>
