<svg width="19" height="19" viewBox="0 0 19 19" fill="#B0B0B0" xmlns="http://www.w3.org/2000/svg">
<path fill-rule="evenodd" clip-rule="evenodd" d="M12.3432 12.2426C14.6863 9.8995 14.6863 6.1005 12.3432 3.75736C10 1.41421 6.20104 1.41421 3.85789 3.75736C1.51475 6.1005 1.51475 9.8995 3.85789 12.2426C6.20104 14.5858 10 14.5858 12.3432 12.2426ZM13.7574 2.34315C16.6426 5.22833 16.8633 9.76899 14.4196 12.9075C14.4349 12.921 14.4499 12.9351 14.4645 12.9497L18.7071 17.1924C19.0977 17.5829 19.0977 18.2161 18.7071 18.6066C18.3166 18.9971 17.6834 18.9971 17.2929 18.6066L13.0503 14.364C13.0356 14.3493 13.0216 14.3343 13.008 14.319C9.86953 16.7628 5.32886 16.542 2.44368 13.6569C-0.680511 10.5327 -0.680511 5.46734 2.44368 2.34315C5.56788 -0.781049 10.6332 -0.781049 13.7574 2.34315ZM7.10055 4H9.10055V7H12.1005V9H9.10055V12H7.10055V9H4.10055V7H7.10055V4Z" />
</svg>
